<?xml version="1.0" encoding="utf-8"?>
<!-- Generator: Adobe Illustrator 17.0.0, SVG Export Plug-In . SVG Version: 6.00 Build 0)  -->
<!DOCTYPE svg PUBLIC "-//W3C//DTD SVG 1.1//EN" "http://www.w3.org/Graphics/SVG/1.1/DTD/svg11.dtd">
<svg version="1.1" id="Layer_1" xmlns="http://www.w3.org/2000/svg" xmlns:xlink="http://www.w3.org/1999/xlink" x="0px" y="0px"
	 width="16px" height="16px" viewBox="0 0 16 16" enable-background="new 0 0 16 16" xml:space="preserve">
<g display="none">
	<g display="inline">
		<path d="M15,4h-2V1c0-0.553-0.447-1-1-1H4C3.447,0,3,0.447,3,1v3H1C0.447,4,0,4.447,0,5v8c0,0.553,0.447,1,1,1h2v1
			c0,0.553,0.447,1,1,1h8c0.553,0,1-0.447,1-1v-1h2c0.553,0,1-0.447,1-1V5C16,4.447,15.553,4,15,4z M5,2h6v2H5V2z M11,14H5v-2h6V14z
			 M14,12h-1v-2H3v2H2V6h12V12z M13,7h-2v2h2V7z"/>
	</g>
</g>
<path d="M15,2H1C0.447,2,0,2.447,0,3v10c0,0.553,0.447,1,1,1h14c0.553,0,1-0.447,1-1V3C16,2.447,15.553,2,15,2z M8,8.586L3.414,4
	h9.172L8,8.586z M4.586,8L2,10.586V5.414L4.586,8z M6,9.414l1.647,1.646c0.195,0.195,0.512,0.195,0.707,0L10,9.414L12.586,12H3.414
	L6,9.414z M11.414,8L14,5.414v5.172L11.414,8z"/>
</svg>
